<svg xmlns="http://www.w3.org/2000/svg" viewBox="0 0 95.185 95.185">
  <defs>
    <style>
      .cls-1 {
        fill: #4daaf5;
      }

      .cls-2 {
        fill: #2195f2;
      }

      .cls-3 {
        fill: #fec007;
      }

      .cls-4 {
        fill: #b7e5ff;
      }

      .cls-5 {
        fill: #e01717;
      }
    </style>
  </defs>
  <g id="AliveCampNew_location" transform="translate(0)">
    <path id="Path_102" data-name="Path 102" class="cls-1" d="M148.2,61.8l-24.617,9.661v74.036l24.617-9.847,24.617,9.847V71.459Z" transform="translate(-100.612 -50.309)"/>
    <g id="Group_9" data-name="Group 9" transform="translate(0 11.303)">
      <path id="Path_103" data-name="Path 103" class="cls-2" d="M388.416,70.647v74.036l22.976-9.847V60.8Z" transform="translate(-316.207 -60.8)"/>
      <path id="Path_104" data-name="Path 104" class="cls-2" d="M0,60.8v74.036l22.976,9.847V70.647Z" transform="translate(-0.002 -60.8)"/>
    </g>
    <path id="Path_105" data-name="Path 105" class="cls-3" d="M224.993,202.068a8.193,8.193,0,0,1,3.282,6.564h0a8.206,8.206,0,0,1-8.206,8.206h0a8.207,8.207,0,0,1-8.206-8.206h0a8.192,8.192,0,0,1,3.282-6.564" transform="translate(-172.477 -164.502)"/>
    <g id="Group_10" data-name="Group 10" transform="translate(30.571 64.261)">
      <path id="Path_106" data-name="Path 106" class="cls-4" d="M197.264,408.1l-15.192-6.072a1.647,1.647,0,0,0-1.219,0L165.661,408.1l-1.219-3.048,15.192-6.072a4.908,4.908,0,0,1,3.656,0l15.194,6.072Z" transform="translate(-164.442 -388.783)"/>
      <path id="Path_107" data-name="Path 107" class="cls-4" d="M197.264,355.137l-15.192-6.072a1.647,1.647,0,0,0-1.219,0l-15.192,6.072-1.219-3.048,15.192-6.072a4.907,4.907,0,0,1,3.656,0l15.194,6.072Z" transform="translate(-164.442 -345.664)"/>
    </g>
    <path id="Path_108" data-name="Path 108" class="cls-5" d="M184.648,44.127l-13.209-18.29a16.3,16.3,0,0,1,1.687-21.062h0a16.294,16.294,0,0,1,23.045,0h0a16.3,16.3,0,0,1,1.687,21.062Z" transform="translate(-137.056 -0.001)"/>
    <path id="Path_109" data-name="Path 109" class="cls-3" d="M220.07,43.145h0a8.206,8.206,0,0,1,8.206,8.206h0a8.206,8.206,0,0,1-8.206,8.206h0a8.206,8.206,0,0,1-8.206-8.206h0A8.206,8.206,0,0,1,220.07,43.145Z" transform="translate(-172.477 -35.124)"/>
  </g>
</svg>
