<svg xmlns="http://www.w3.org/2000/svg" viewBox="0 0 122.173 120.162">
  <defs>
    <style>
      .cls-1 {
        fill: #fc3842;
      }

      .cls-2 {
        fill: #ef2235;
      }

      .cls-3 {
        fill: #ffca54;
      }

      .cls-4 {
        fill: #f9b24b;
      }

      .cls-5 {
        fill: #00cdb3;
      }

      .cls-6 {
        fill: #0edbbd;
      }

      .cls-7 {
        fill: #84efda;
      }

      .cls-8 {
        fill: #0dbaa1;
      }

      .cls-9 {
        fill: #bad8e8;
      }

      .cls-10 {
        fill: #9ec6d8;
      }

      .cls-11 {
        fill: #11a590;
      }

      .cls-12 {
        fill: #0e8e78;
      }

      .cls-13 {
        fill: #dd2234;
      }

      .cls-14 {
        fill: #c6122c;
      }

      .cls-15 {
        fill: #6ee5cf;
      }
    </style>
  </defs>
  <g id="AliveCampNew_hats" transform="translate(0 0)">
    <path id="Path_76" data-name="Path 76" class="cls-1" d="M52.875,89.863a8.651,8.651,0,0,1-4.868.092L13.215,182.318H55.389l16.157-42.891Z" transform="translate(-10.062 -69.425)"/>
    <path id="Path_77" data-name="Path 77" class="cls-2" d="M52.875,89.863a8.651,8.651,0,0,1-4.868.092L13.215,182.318h8.144l33.171-88.06Z" transform="translate(-10.062 -69.425)"/>
    <path id="Path_78" data-name="Path 78" class="cls-3" d="M99.46,221.765l35.778,16.979,1.973-5.237-1.676-4.448L102.6,213.429Z" transform="translate(-75.727 -163.506)"/>
    <path id="Path_79" data-name="Path 79" class="cls-4" d="M102.6,213.429l-3.14,8.336,6.909,3.278,3.14-8.336Z" transform="translate(-75.727 -163.506)"/>
    <path id="Path_80" data-name="Path 80" class="cls-3" d="M129.289,142.582l23.248,11.033-4.508-11.966-15.6-7.4Z" transform="translate(-98.438 -103.218)"/>
    <path id="Path_81" data-name="Path 81" class="cls-4" d="M132.429,134.246l-3.14,8.336,6.909,3.279,3.14-8.336Z" transform="translate(-98.438 -103.218)"/>
    <path id="Path_82" data-name="Path 82" class="cls-3" d="M95.152,303.231l-22.378-10.62-3.14,8.336,35.778,16.979,3.14-8.336-7.329-3.478" transform="translate(-53.018 -223.794)"/>
    <path id="Path_83" data-name="Path 83" class="cls-4" d="M72.773,292.611l-3.14,8.336,6.909,3.279,3.14-8.336Z" transform="translate(-53.017 -223.794)"/>
    <path id="Path_84" data-name="Path 84" class="cls-3" d="M42.945,371.795l-3.14,8.336L75.3,396.976h.335l3.089-8.2Z" transform="translate(-30.307 -284.083)"/>
    <path id="Path_85" data-name="Path 85" class="cls-4" d="M49.855,375.074l-6.909-3.279-3.14,8.336,6.909,3.279Z" transform="translate(-30.307 -284.083)"/>
    <path id="Path_86" data-name="Path 86" class="cls-5" d="M229.5,84.683l-2.3-1.207-2.3,1.207-34.946,92.772h74.487Z" transform="translate(-144.629 -64.563)"/>
    <path id="Path_87" data-name="Path 87" class="cls-6" d="M370.109,160.17a62.713,62.713,0,0,0,26.613,75.678h1.894Z" transform="translate(-278.802 -122.956)"/>
    <g id="Group_7" data-name="Group 7" transform="translate(68.317 53.804)">
      <path id="Path_88" data-name="Path 88" class="cls-7" d="M392.581,240.959l-4.244-11.267a6.43,6.43,0,1,0,4.244,11.267Z" transform="translate(-359.098 -229.692)"/>
      <circle id="Ellipse_23" data-name="Ellipse 23" class="cls-7" cx="5.419" cy="5.419" r="5.419" transform="translate(0 14.932)"/>
      <circle id="Ellipse_24" data-name="Ellipse 24" class="cls-7" cx="7.117" cy="7.117" r="7.117" transform="translate(22.815 33.907)"/>
    </g>
    <path id="Path_89" data-name="Path 89" class="cls-8" d="M229.5,84.683l-2.3-1.208-2.3,1.208-34.946,92.772H198.1l33.171-88.06Z" transform="translate(-144.629 -64.562)"/>
    <circle id="Ellipse_25" data-name="Ellipse 25" class="cls-9" cx="8.632" cy="8.632" r="8.632" transform="translate(31.587 3.571)"/>
    <path id="Path_90" data-name="Path 90" class="cls-10" d="M144.745,20a8.633,8.633,0,1,0,0,15.567A8.641,8.641,0,0,1,144.745,20Z" transform="translate(-100.79 -15.58)"/>
    <path id="Path_91" data-name="Path 91" class="cls-3" d="M319.624,11.387l-5.97-.868-2.67-5.41a1.6,1.6,0,0,0-2.857,0l-2.67,5.41-5.969.868A1.6,1.6,0,0,0,298.6,14.1l4.319,4.21L301.9,24.261a1.6,1.6,0,0,0,2.312,1.68l5.339-2.807c5.856,3.078,5.558,2.99,6.081,2.99a1.6,1.6,0,0,0,1.548-1.994l-1-5.815,4.32-4.21A1.6,1.6,0,0,0,319.624,11.387Z" transform="translate(-226.985 -4.22)"/>
    <path id="Path_92" data-name="Path 92" class="cls-11" d="M191.272,484.59H179.94a3.187,3.187,0,0,1-3.187-3.187v-.895a3.187,3.187,0,0,1,3.187-3.187h73.62a3.187,3.187,0,0,1,3.187,3.187v.895a3.187,3.187,0,0,1-3.187,3.187H198.176" transform="translate(-134.576 -364.428)"/>
    <path id="Path_93" data-name="Path 93" class="cls-12" d="M253.55,488.132H179.93a3.186,3.186,0,0,1-2.987-2.083,5,5,0,0,0-.2,2,3.187,3.187,0,0,0,3.187,3.187h73.62a3.187,3.187,0,0,0,3.187-3.187,5.009,5.009,0,0,0-.2-2A3.185,3.185,0,0,1,253.55,488.132Z" transform="translate(-134.566 -371.074)"/>
    <path id="Path_94" data-name="Path 94" class="cls-13" d="M42.185,481.4v-.895a3.187,3.187,0,0,1,3.187-3.187H3.2a3.187,3.187,0,0,0-3.187,3.187v.895A3.187,3.187,0,0,0,3.2,484.591H45.372A3.187,3.187,0,0,1,42.185,481.4Z" transform="translate(-0.008 -364.429)"/>
    <path id="Path_95" data-name="Path 95" class="cls-14" d="M42.18,488.132H3.189A3.185,3.185,0,0,1,.2,486.049a5,5,0,0,0-.2,2,3.187,3.187,0,0,0,3.187,3.187H45.363A3.185,3.185,0,0,1,42.18,488.132Z" transform="translate(0 -371.074)"/>
    <g id="Group_8" data-name="Group 8" transform="translate(73.962 57.023)">
      <circle id="Ellipse_26" data-name="Ellipse 26" class="cls-7" cx="2.586" cy="2.586" r="2.586" transform="translate(14.583 17.131)"/>
      <circle id="Ellipse_27" data-name="Ellipse 27" class="cls-7" cx="2.586" cy="2.586" r="2.586" transform="translate(8.21 44.347)"/>
      <path id="Path_96" data-name="Path 96" class="cls-7" d="M311.888,389.994a1.992,1.992,0,0,1-1.928-2.054l.125-3.968a1.992,1.992,0,0,1,3.982.126l-.125,3.968A1.991,1.991,0,0,1,311.888,389.994Z" transform="translate(-309.959 -348.909)"/>
      <path id="Path_97" data-name="Path 97" class="cls-7" d="M317.393,245.363a1.992,1.992,0,0,1,1.929-2.053l3.968-.125a1.992,1.992,0,1,1,.125,3.982l-3.968.124A1.992,1.992,0,0,1,317.393,245.363Z" transform="translate(-315.618 -243.184)"/>
    </g>
    <path id="Path_98" data-name="Path 98" class="cls-4" d="M311.279,5.7c-.276-.56-.6-1.484-1.723-1.484a1.593,1.593,0,0,0-1.429.888l-2.67,5.41-5.969.868A1.6,1.6,0,0,0,298.6,14.1l4.319,4.21L301.9,24.254a1.6,1.6,0,0,0,2.312,1.68l5.339-2.807.969.509A14.845,14.845,0,0,1,311.279,5.7Z" transform="translate(-226.985 -4.214)"/>
    <path id="Path_99" data-name="Path 99" class="cls-15" d="M295.907,164.744a9.116,9.116,0,0,0-5.535-8.384l-6.42,17.044A9.118,9.118,0,0,0,295.907,164.744Z" transform="translate(-216.195 -120.055)"/>
    <path id="Path_100" data-name="Path 100" class="cls-7" d="M229.962,361.631a9.457,9.457,0,0,0-11.255-9.285l-5.678,15.074C218.511,374.49,229.962,370.657,229.962,361.631Z" transform="translate(-162.196 -269.144)"/>
    <path id="Path_101" data-name="Path 101" class="cls-15" d="M219.8,371.061l6.4-16.979a9.437,9.437,0,0,0-7.491-1.734l-5.678,15.074A9.442,9.442,0,0,0,219.8,371.061Z" transform="translate(-162.196 -269.145)"/>
  </g>
</svg>
