<svg xmlns="http://www.w3.org/2000/svg" viewBox="0 0 143.127 152.431">
  <defs>
    <style>
      .cls-1 {
        fill: #ba6746;
      }

      .cls-2 {
        fill: #3c5a73;
      }

      .cls-3 {
        fill: #55879b;
      }

      .cls-4 {
        fill: #fa2d14;
      }

      .cls-5 {
        fill: #f0ab95;
      }

      .cls-6 {
        fill: #eb7f09;
      }

      .cls-7 {
        fill: #ff640a;
      }

      .cls-8 {
        fill: #cd5014;
      }

      .cls-9 {
        fill: #ffb69e;
      }

      .cls-10 {
        fill: #fa870a;
      }

      .cls-11 {
        fill: #ffa50a;
      }
    </style>
  </defs>
  <g id="AliveCampNew_basketball-player" transform="translate(0)">
    <g id="Group_3" data-name="Group 3" transform="translate(79.521 99.761)">
      <path id="Path_29" data-name="Path 29" class="cls-1" d="M390.016,386.525,360.755,363.9a5.9,5.9,0,0,1-1.465-7.675l10.82-18.246a5.9,5.9,0,1,1,10.146,6.017l-8.16,13.761,25.136,19.436a5.9,5.9,0,0,1-7.215,9.333Z" transform="translate(-335.916 -335.087)"/>
      <path id="Path_30" data-name="Path 30" class="cls-1" d="M290.207,378.247l-7.343-33.987a5.9,5.9,0,0,1,5.5-7.138l33.374-2.028a5.9,5.9,0,0,1,.522,11.785L295.87,348.6l5.868,27.158a5.9,5.9,0,1,1-11.531,2.491Z" transform="translate(-282.729 -335.088)"/>
    </g>
    <path id="Path_31" data-name="Path 31" class="cls-2" d="M376.582,357.757,384.742,344a5.9,5.9,0,1,0-10.146-6.017l-9.744,16.432Z" transform="translate(-260.881 -235.327)"/>
    <path id="Path_32" data-name="Path 32" class="cls-3" d="M347.971,335.094l-27.894,1.695,2.787,11.759,25.628-1.669a5.9,5.9,0,0,0-.522-11.785Z" transform="translate(-229.436 -235.327)"/>
    <path id="Path_33" data-name="Path 33" class="cls-4" d="M354.131,249.746l-27.305-4-6.6-29.351a6.032,6.032,0,0,1,4.562-7.208l13.366-3.005a6.032,6.032,0,0,1,7.208,4.562Z" transform="translate(-229.437 -144.695)"/>
    <g id="Group_4" data-name="Group 4" transform="translate(62.811 37.943)">
      <circle id="Ellipse_6" data-name="Ellipse 6" class="cls-1" cx="10.08" cy="10.08" r="10.08" transform="translate(22.247 1.332)"/>
      <path id="Path_34" data-name="Path 34" class="cls-1" d="M226.6,133.138a5.55,5.55,0,0,0,.35,1.817l7.761,20.833a5.564,5.564,0,0,0,3.947,3.476l26.387,6.176a5.565,5.565,0,1,0,2.536-10.837l-23.482-5.5-6.72-18.038a5.566,5.566,0,0,0-10.779,2.069Z" transform="translate(-226.6 -127.446)"/>
    </g>
    <path id="Path_35" data-name="Path 35" class="cls-4" d="M320.38,149.6a1.038,1.038,0,0,1-.995,1.333H300.353a1.038,1.038,0,0,1-.973-1.4l.926-2.5a1.258,1.258,0,0,1,1.18-.821h16.951a1.259,1.259,0,0,1,1.207.9Z" transform="translate(-214.855 -102.684)"/>
    <path id="Path_36" data-name="Path 36" class="cls-5" d="M20.251,313.663a6.563,6.563,0,0,1-4.33-8.21L26.133,272.44l1.592-32.976a6.563,6.563,0,0,1,13.111.633L39.2,273.9a6.549,6.549,0,0,1-.286,1.623L28.461,309.332A6.564,6.564,0,0,1,20.251,313.663Z" transform="translate(-15.626 -163.784)"/>
    <path id="Path_37" data-name="Path 37" class="cls-6" d="M64.532,269.529,65.952,240.1a6.563,6.563,0,1,0-13.111-.633L51.39,269.529H64.532Z" transform="translate(-40.742 -163.784)"/>
    <path id="Path_38" data-name="Path 38" class="cls-5" d="M108.732,64.385a5.469,5.469,0,0,1,3.106-7.084l20.067-7.833,10.869-20.974a5.469,5.469,0,1,1,9.712,5.033l-11.817,22.8a5.469,5.469,0,0,1-2.867,2.578l-21.986,8.582A5.469,5.469,0,0,1,108.732,64.385Z" transform="translate(-80.749 -17.936)"/>
    <circle id="Ellipse_7" data-name="Ellipse 7" class="cls-7" cx="12.097" cy="12.097" r="12.097" transform="translate(58.779 0)"/>
    <path id="Path_39" data-name="Path 39" class="cls-8" d="M237.25,12.1c0-.289-.014-.575-.034-.859H232.29A11.114,11.114,0,0,1,234.876,4.9a12.133,12.133,0,0,0-1.134-1.32l-.018.02a12.987,12.987,0,0,0-3.156,7.639h-4.556V.034c-.284-.02-.57-.034-.859-.034s-.575.014-.859.034v11.2h-4.556A12.991,12.991,0,0,0,216.583,3.6l-.017-.02a12.135,12.135,0,0,0-1.134,1.32,11.117,11.117,0,0,1,2.586,6.339h-4.927c-.02.284-.034.57-.034.859s.014.575.034.859h4.927a11.115,11.115,0,0,1-2.586,6.338,12.131,12.131,0,0,0,1.134,1.32l.018-.02a12.987,12.987,0,0,0,3.155-7.639h4.556v11.2c.284.02.57.034.859.034s.575-.014.859-.034v-11.2h4.556a12.992,12.992,0,0,0,3.155,7.639l.018.02a12.138,12.138,0,0,0,1.134-1.32,11.115,11.115,0,0,1-2.586-6.338h4.927C237.236,12.672,237.25,12.386,237.25,12.1Z" transform="translate(-154.278)"/>
    <path id="Path_40" data-name="Path 40" class="cls-9" d="M51.1,290.4l-5.5-31.929L19.171,244.761a6.563,6.563,0,0,1,6.042-11.653l29.331,15.21a6.563,6.563,0,0,1,3.447,4.713l6.049,35.142A6.563,6.563,0,1,1,51.1,290.4Z" transform="translate(-15.627 -163.189)"/>
    <path id="Path_41" data-name="Path 41" class="cls-10" d="M54.545,248.318l-29.331-15.21a6.563,6.563,0,0,0-6.042,11.653l26.032,13.5Z" transform="translate(-15.627 -163.189)"/>
    <path id="Path_42" data-name="Path 42" class="cls-11" d="M45.563,154.818l-28.506-6.534L30.989,111.55a7.658,7.658,0,0,1,9.875-4.444l12.768,4.842a7.658,7.658,0,0,1,4.444,9.875Z" transform="translate(-16.631 -74.867)"/>
    <circle id="Ellipse_8" data-name="Ellipse 8" class="cls-5" cx="11.336" cy="11.336" r="11.336" transform="translate(24.56 9.573)"/>
    <path id="Path_43" data-name="Path 43" class="cls-9" d="M86.893,61.173a5.47,5.47,0,0,1,4.292-6.435l21.124-4.221,14.354-18.762A5.469,5.469,0,1,1,135.35,38.4L119.744,58.8a5.47,5.47,0,0,1-3.272,2.04L93.328,65.464A5.47,5.47,0,0,1,86.893,61.173Z" transform="translate(-65.6 -20.793)"/>
  </g>
</svg>
