<svg xmlns="http://www.w3.org/2000/svg" viewBox="0 0 118.021 106.142">
  <defs>
    <style>
      .cls-1 {
        fill: #ffb69e;
      }

      .cls-2 {
        fill: #47a7ff;
      }

      .cls-3 {
        fill: #61b3ff;
      }

      .cls-4 {
        fill: #78beff;
      }

      .cls-5 {
        fill: #ba6746;
      }

      .cls-6 {
        fill: #3c5a73;
      }

      .cls-7 {
        fill: #55879b;
      }

      .cls-8 {
        fill: #fa2d14;
      }
    </style>
  </defs>
  <g id="AliveCampNew_training" transform="translate(0 -25.769)">
    <g id="Group_23" data-name="Group 23" transform="translate(0 25.769)">
      <path id="Path_156" data-name="Path 156" class="cls-1" d="M39.586,79.831,35.559,65.767a6.212,6.212,0,0,0-2.9-3.687L21.718,55.844l.078-14.61,11.84-9.477a3.363,3.363,0,0,0-4.2-5.251L16.34,36.986a3.363,3.363,0,0,0-1.261,2.607l-.1,18.46L0,84.345l19.79,5.44,1.989-3.49,15.462-1.606A3.364,3.364,0,0,0,39.586,79.831Zm-13.856-.47,4.322-7.585,1.979,7.1Z" transform="translate(0 -25.769)"/>
      <path id="Path_157" data-name="Path 157" class="cls-1" d="M49.42,308.509,43.532,265.4a4.484,4.484,0,0,1,8.886-1.212L58.306,307.3a4.484,4.484,0,0,1-8.886,1.212Z" transform="translate(-33.465 -206.245)"/>
      <path id="Path_158" data-name="Path 158" class="cls-1" d="M32.979,154.789l-15.4-8.773L0,176.874l.069,43.081a4.484,4.484,0,0,0,4.4,4.483,4.579,4.579,0,0,0,4.569-4.6v-40.48l10.754,2.956,14-24.568A2.168,2.168,0,0,0,32.979,154.789Z" transform="translate(0 -118.298)"/>
    </g>
    <path id="Path_159" data-name="Path 159" class="cls-2" d="M45.879,283.638l8.831-1.573-2.293-16.446a4.484,4.484,0,0,0-8.886,1.212Z" transform="translate(-33.465 -181.578)"/>
    <path id="Path_160" data-name="Path 160" class="cls-3" d="M32.979,154.79,29.8,152.978a4,4,0,0,1-3.327,1.927,3.9,3.9,0,0,1-3.835-3.835,3.379,3.379,0,0,1,.5-1.89l-5.552-3.163L0,176.875l.028,17.716H9.036V179.359l10.754,2.956,14-24.568A2.168,2.168,0,0,0,32.979,154.79Z" transform="translate(0 -92.53)"/>
    <path id="Path_161" data-name="Path 161" class="cls-4" d="M39.586,146.843l-4.027-14.064c-.989-3.454-4.021-4.089-5.76-5.319a4,4,0,0,1-3.327,1.927,3.9,3.9,0,0,1-3.835-3.835,3.378,3.378,0,0,1,.5-1.89l-1.416-.807.053-10H15.046l-.065,12.211L0,151.356l19.79,5.44,1.989-3.49L37.241,151.7A3.364,3.364,0,0,0,39.586,146.843Zm-13.856-.47,4.322-7.585,1.979,7.1Z" transform="translate(0 -67.011)"/>
    <g id="Group_24" data-name="Group 24" transform="translate(16.165 41.307)">
      <path id="Path_162" data-name="Path 162" class="cls-1" d="M92.515,244.611H85.251l.742,2.664-13.138.981a3.363,3.363,0,0,0,1.272,6.6L91.2,253.086a3.364,3.364,0,0,0,2.345-4.858Z" transform="translate(-70.128 -209.704)"/>
      <circle id="Ellipse_39" data-name="Ellipse 39" class="cls-1" cx="7.782" cy="7.782" r="7.782" transform="translate(7.588)"/>
    </g>
    <g id="Group_25" data-name="Group 25" transform="translate(63.001 77.047)">
      <path id="Path_163" data-name="Path 163" class="cls-5" d="M276.6,291.859a4.272,4.272,0,0,1-3.18-5.136l8.279-35.2a4.272,4.272,0,0,1,8.317,1.956l-8.279,35.2A4.272,4.272,0,0,1,276.6,291.859Z" transform="translate(-273.31 -248.223)"/>
      <path id="Path_164" data-name="Path 164" class="cls-5" d="M358.879,288.677l-8.279-35.2a4.272,4.272,0,0,1,8.317-1.956l8.279,35.2a4.272,4.272,0,0,1-8.317,1.956Z" transform="translate(-332.696 -248.223)"/>
    </g>
    <path id="Path_165" data-name="Path 165" class="cls-6" d="M306.529,253.473a4.272,4.272,0,0,0-8.317-1.956l-3.447,14.66,8.551.962C304.238,263.215,305.579,257.513,306.529,253.473Z" transform="translate(-226.818 -171.176)"/>
    <path id="Path_166" data-name="Path 166" class="cls-7" d="M353.816,267.14l8.551-.962-3.448-14.66a4.272,4.272,0,0,0-8.317,1.956Z" transform="translate(-269.697 -171.176)"/>
    <path id="Path_167" data-name="Path 167" class="cls-5" d="M259.995,126.66a3.286,3.286,0,0,0-4.237-1.906L244.9,128.873l-12.979-1.047H213.068l-12.979,1.047-10.854-4.119A3.285,3.285,0,1,0,186.9,130.9l11.542,4.38a3.286,3.286,0,0,0,1.423.2l13.2-1.038v23.938h18.856V134.443l13.2,1.038a3.285,3.285,0,0,0,1.423-.2l11.542-4.38A3.285,3.285,0,0,0,259.995,126.66Z" transform="translate(-142.188 -76.003)"/>
    <path id="Path_168" data-name="Path 168" class="cls-8" d="M296.75,138.794h-5.618c0,.008,0,.015,0,.023a3.835,3.835,0,0,1-7.67,0c0-.008,0-.015,0-.023h-5.57l-8.866.716v6.6l8.866-.7v23.938H296.75V145.412l9.073.714v-6.6Z" transform="translate(-207.014 -86.972)"/>
    <circle id="Ellipse_40" data-name="Ellipse 40" class="cls-5" cx="7.378" cy="7.378" r="7.378" transform="translate(72.929 31.153)"/>
  </g>
</svg>
