<svg xmlns="http://www.w3.org/2000/svg" viewBox="0 0 125.484 102.204">
  <defs>
    <style>
      .cls-1 {
        fill: #fb0d25;
      }

      .cls-2 {
        fill: #f7e6a1;
      }
    </style>
  </defs>
  <g id="AliveCampNew_cardiogram" transform="translate(0 -5.38)">
    <path id="Path_169" data-name="Path 169" class="cls-1" d="M55.752,17.716a3.756,3.756,0,0,0,6.266.039A28.724,28.724,0,0,1,85.507,5.382c16.049,0,27.606,13.73,29.06,30.09,0,0,.785,4.063-.941,11.374A50.275,50.275,0,0,1,98.3,72.4L58.865,107.584,20.1,72.4A50.275,50.275,0,0,1,4.771,46.844C3.044,39.531,3.83,35.47,3.83,35.47,5.284,19.11,16.841,5.38,32.89,5.38A27.411,27.411,0,0,1,55.752,17.716Z" transform="translate(4.249)"/>
    <path id="Path_170" data-name="Path 170" class="cls-2" d="M54.088,67.711c-.045,0-.091,0-.136,0a2.164,2.164,0,0,1-1.871-1.354l-11.12-27.8L32.254,57.285a2.17,2.17,0,0,1-1.964,1.253H2.164a2.164,2.164,0,1,1,0-4.327H28.909L39.142,32.184a2.125,2.125,0,0,1,2.023-1.251,2.166,2.166,0,0,1,1.949,1.359L54.406,60.519l8.609-15.5a2.163,2.163,0,0,1,3.749-.056L70.416,51.1l7.516-35.763a2.069,2.069,0,0,1,2.17-1.718,2.166,2.166,0,0,1,2.083,1.822l6.2,38.764H123.32a2.164,2.164,0,0,1,0,4.327H86.541a2.162,2.162,0,0,1-2.135-1.822L79.762,27.681,73.514,57.419a2.162,2.162,0,0,1-3.974.662l-4.565-7.67L55.983,66.6A2.177,2.177,0,0,1,54.088,67.711Z" transform="translate(0 9.585)"/>
  </g>
</svg>
