<svg xmlns="http://www.w3.org/2000/svg" viewBox="0 0 112.912 148.839">
  <defs>
    <style>
      .cls-1 {
        fill: #8fda5d;
      }

      .cls-2 {
        fill: #b97850;
      }

      .cls-3 {
        fill: #a5694b;
      }

      .cls-4 {
        fill: #7dcd55;
      }

      .cls-5 {
        fill: #a7a5ac;
      }

      .cls-6 {
        fill: #736f7b;
      }
    </style>
  </defs>
  <g id="AliveCampNew_Tree" transform="translate(-61.793)">
    <path id="Path_146" data-name="Path 146" class="cls-1" d="M165.121,50.113a9.782,9.782,0,0,1-2.384-5.63C160.75,19.561,141.61,0,118.249,0s-42.5,19.561-44.487,44.484a9.785,9.785,0,0,1-2.384,5.63c-6.048,6.946-9.585,15.3-9.585,24.306,0,24.094,25.276,43.625,56.456,43.625s56.456-19.532,56.456-43.625C174.705,65.418,171.168,57.059,165.121,50.113Z"/>
    <path id="Path_147" data-name="Path 147" class="cls-2" d="M264.948,183.29a2.565,2.565,0,0,0-3.34-1.416,23.006,23.006,0,0,0-14.435,21.415v7.7a2.567,2.567,0,0,0,2.566,2.566h0a2.567,2.567,0,0,0,2.566-2.566v-9.635c0-6.876,4.854-12.142,11.227-14.722A2.566,2.566,0,0,0,264.948,183.29Z" transform="translate(-131.49 -128.87)"/>
    <path id="Path_148" data-name="Path 148" class="cls-3" d="M224.71,260a2.566,2.566,0,0,1-2.566-2.566v-29.72a18.035,18.035,0,0,0-8.977-15.557,2.566,2.566,0,0,1,2.572-4.441,23.176,23.176,0,0,1,11.538,20v29.72A2.566,2.566,0,0,1,224.71,260Z" transform="translate(-106.461 -147.083)"/>
    <path id="Path_149" data-name="Path 149" class="cls-4" d="M95.154,74.419a45.424,45.424,0,0,1,6.006-22.71,21.019,21.019,0,0,0,2.807-8.8c1.625-20.369,11.623-36.846,24.683-41.528A41.1,41.1,0,0,0,118.249,0c-23.361,0-42.5,19.561-44.487,44.484a9.785,9.785,0,0,1-2.384,5.63c-6.048,6.946-9.585,15.3-9.585,24.306,0,24.094,25.276,43.625,56.456,43.625a72.949,72.949,0,0,0,10.465-.76C109.624,113.536,95.154,95.788,95.154,74.419Z"/>
    <path id="Path_150" data-name="Path 150" class="cls-2" d="M249.738,280.841a2.566,2.566,0,0,1-2.566-2.566v-7.7a41.106,41.106,0,0,1,41.059-41.059,2.566,2.566,0,1,1,0,5.133A35.967,35.967,0,0,0,252.3,270.576v7.7A2.565,2.565,0,0,1,249.738,280.841Z" transform="translate(-131.489 -162.796)"/>
    <path id="Path_151" data-name="Path 151" class="cls-3" d="M204.776,336.119h0a2.567,2.567,0,0,1-2.566-2.566V307.891a41,41,0,0,0-21.9-36.322,2.567,2.567,0,0,0-2.4,4.539,35.872,35.872,0,0,1,19.164,31.784v25.662a2.566,2.566,0,0,1-2.566,2.566h0a2.566,2.566,0,1,0,0,5.133h10.265a2.566,2.566,0,0,0,0-5.133Z" transform="translate(-81.395 -192.413)"/>
    <g id="Group_21" data-name="Group 21" transform="translate(133.646 66.721)">
      <rect id="Rectangle_30" data-name="Rectangle 30" class="cls-5" width="5.132" height="61.588" transform="translate(0 5.132)"/>
      <rect id="Rectangle_31" data-name="Rectangle 31" class="cls-5" width="5.132" height="66.721" transform="translate(12.831)"/>
    </g>
    <g id="Group_22" data-name="Group 22" transform="translate(133.646 64.154)">
      <path id="Path_152" data-name="Path 152" class="cls-6" d="M311.531,248.609a2.566,2.566,0,0,1-2.566-2.566V240.91a2.566,2.566,0,0,1,5.133,0v5.132A2.565,2.565,0,0,1,311.531,248.609Z" transform="translate(-308.965 -233.212)"/>
      <path id="Path_153" data-name="Path 153" class="cls-6" d="M355.669,230.954a2.566,2.566,0,0,1-2.566-2.566v-5.132a2.566,2.566,0,1,1,5.133,0v5.132A2.566,2.566,0,0,1,355.669,230.954Z" transform="translate(-340.272 -220.689)"/>
    </g>
    <path id="Path_154" data-name="Path 154" class="cls-3" d="M320.668,455.339H302.7a2.566,2.566,0,0,1,0-5.133h17.963a2.566,2.566,0,1,1,0,5.133Z" transform="translate(-169.058 -319.331)"/>
    <path id="Path_155" data-name="Path 155" class="cls-2" d="M324.362,420.029H311.531a2.566,2.566,0,1,1,0-5.133h12.831a2.566,2.566,0,1,1,0,5.133Z" transform="translate(-175.319 -294.285)"/>
  </g>
</svg>
