<svg xmlns="http://www.w3.org/2000/svg" viewBox="0 0 89.257 102.287">
  <defs>
    <style>
      .cls-1 {
        fill: #ffd83b;
      }

      .cls-2 {
        fill: #f3c432;
      }
    </style>
  </defs>
  <g id="AliveCampNew_star" transform="translate(0 0)">
    <path id="Path_110" data-name="Path 110" class="cls-1" d="M73.62,183.977c0-15.321-25.643-40.964-40.964-40.964,15.321,0,40.964-25.643,40.964-40.964,0,15.321,25.643,40.964,40.964,40.964C99.264,143.012,73.62,168.656,73.62,183.977Z" transform="translate(-32.656 -81.69)"/>
    <path id="Path_111" data-name="Path 111" class="cls-2" d="M173.255,258.782c0-6.033-10.1-16.135-16.135-16.135,6.033,0,16.135-10.1,16.135-16.135,0,6.033,10.1,16.135,16.135,16.135C183.354,242.647,173.255,252.746,173.255,258.782Z" transform="translate(-132.29 -181.325)"/>
    <g id="Group_11" data-name="Group 11" transform="translate(1.87)">
      <path id="Path_112" data-name="Path 112" class="cls-1" d="M301.988,68.152c0-7.38-12.353-19.732-19.732-19.732,7.38,0,19.732-12.353,19.732-19.732,0,7.38,12.353,19.732,19.732,19.732C314.341,48.42,301.988,60.773,301.988,68.152Z" transform="translate(-234.333 -22.965)"/>
      <path id="Path_113" data-name="Path 113" class="cls-1" d="M52.195,423.8c0-3.8-6.361-10.163-10.163-10.163,3.8,0,10.163-6.361,10.163-10.163,0,3.8,6.361,10.163,10.163,10.163C58.556,413.638,52.195,420,52.195,423.8Z" transform="translate(-42.032 -322.983)"/>
      <path id="Path_114" data-name="Path 114" class="cls-1" d="M102.089,28.21c0-5.276-8.829-14.1-14.1-14.1,5.276,0,14.1-8.829,14.1-14.1,0,5.276,8.829,14.1,14.1,14.1C110.918,14.1,102.089,22.934,102.089,28.21Z" transform="translate(-78.817)"/>
    </g>
  </g>
</svg>
