<svg xmlns="http://www.w3.org/2000/svg" viewBox="0 0 144.816 144.817">
  <defs>
    <style>
      .cls-1 {
        fill: #b9d171;
      }

      .cls-2 {
        fill: #ffd9d4;
      }

      .cls-3 {
        fill: #ffcb63;
      }

      .cls-4 {
        fill: #ffb4a9;
      }

      .cls-5 {
        fill: #e18f4e;
      }

      .cls-6 {
        fill: #084f6d;
      }

      .cls-7 {
        fill: #116f97;
      }

      .cls-8 {
        fill: #002f42;
      }

      .cls-9 {
        fill: #c27749;
      }

      .cls-10 {
        fill: #ffe2a8;
      }

      .cls-11 {
        fill: #40211d;
      }

      .cls-12 {
        fill: #60312c;
      }

      .cls-13 {
        fill: #fff0d3;
      }

      .cls-14 {
        fill: #ff6337;
      }

      .cls-15 {
        fill: #ff8646;
      }

      .cls-16 {
        fill: #ff4128;
      }

      .cls-17 {
        fill: #d5e3aa;
      }

      .cls-18 {
        fill: #49c9ff;
      }

      .cls-19 {
        fill: #85453d;
      }

      .cls-20 {
        fill: #a45e43;
      }
    </style>
  </defs>
  <g id="celebration" transform="translate(0 0)">
    <path id="Path_44" data-name="Path 44" class="cls-1" d="M423.1,97.5a2.121,2.121,0,0,0-2.121,2.121v3.253a21.52,21.52,0,0,1-21.5,21.5H391v4.243h8.485a25.768,25.768,0,0,0,25.739-25.739V99.621A2.121,2.121,0,0,0,423.1,97.5Z" transform="translate(-280.409 -69.923)"/>
    <path id="Path_45" data-name="Path 45" class="cls-2" d="M2.122,97.5a2.121,2.121,0,0,1,2.121,2.121v3.253a21.52,21.52,0,0,0,21.5,21.5h8.485v4.243H25.74A25.768,25.768,0,0,1,0,102.874V99.621A2.121,2.121,0,0,1,2.122,97.5Z" transform="translate(-0.001 -69.923)"/>
    <rect id="Rectangle_8" data-name="Rectangle 8" class="cls-3" width="12.728" height="4.243" transform="translate(83.014 54.447)"/>
    <rect id="Rectangle_9" data-name="Rectangle 9" class="cls-4" width="12.728" height="4.243" transform="translate(49.073 54.447)"/>
    <path id="Path_46" data-name="Path 46" class="cls-5" d="M309.95,361.208l7.035-2.345V307.5h4.243v52.892a2.121,2.121,0,0,1-1.45,2.012l-8.485,2.828a2.121,2.121,0,1,1-1.342-4.025Z" transform="translate(-221.242 -220.526)"/>
    <path id="Path_47" data-name="Path 47" class="cls-6" d="M289.779,361.208l-7.035-2.345V307.5H278.5v52.892a2.121,2.121,0,0,0,1.45,2.012l8.485,2.828a2.121,2.121,0,0,0,1.342-4.025Z" transform="translate(-199.729 -220.526)"/>
    <path id="SVGCleanerId_0" class="cls-7" d="M189.95,361.208l7.035-2.345V307.5h4.243v52.892a2.121,2.121,0,0,1-1.45,2.012l-8.485,2.828a2.121,2.121,0,1,1-1.342-4.025Z" transform="translate(-135.184 -220.526)"/>
    <g id="Group_5" data-name="Group 5" transform="translate(53.315 86.974)">
      <path id="SVGCleanerId_0_1_" class="cls-7" d="M189.95,361.208l7.035-2.345V307.5h4.243v52.892a2.121,2.121,0,0,1-1.45,2.012l-8.485,2.828a2.121,2.121,0,1,1-1.342-4.025Z" transform="translate(-188.499 -307.5)"/>
    </g>
    <path id="Path_48" data-name="Path 48" class="cls-8" d="M162.744,315.272v48.535l7.035,2.345a2.121,2.121,0,1,1-1.342,4.025l-8.485-2.828a2.121,2.121,0,0,1-1.45-2.012V315.272C158.5,314.1,162.744,314.1,162.744,315.272Z" transform="translate(-113.671 -225.469)"/>
    <path id="Path_49" data-name="Path 49" class="cls-6" d="M40.1,327.81v20.467l-21.152,7.05a2.121,2.121,0,0,0-1.45,2.012v8.944a2.121,2.121,0,1,0,4.243,0v-7.416l21.152-7.05a2.121,2.121,0,0,0,1.45-2.012v-22Z" transform="translate(-12.552 -235.091)"/>
    <path id="Path_50" data-name="Path 50" class="cls-9" d="M424.984,339.708l-21.152-7.05V306.031H399.59v28.156a2.121,2.121,0,0,0,1.45,2.012l21.152,7.05v7.416a2.121,2.121,0,1,0,4.243,0v-8.944A2.121,2.121,0,0,0,424.984,339.708Z" transform="translate(-286.569 -219.472)"/>
    <path id="Path_51" data-name="Path 51" class="cls-6" d="M256,262.5v21.213a12.728,12.728,0,0,0,12.728-12.728Z" transform="translate(-183.593 -188.254)"/>
    <path id="Path_52" data-name="Path 52" class="cls-7" d="M227.972,270.985l-4.243-8.485L211,270.985a12.728,12.728,0,0,0,12.728,12.728C226.072,283.713,227.972,278.015,227.972,270.985Z" transform="translate(-151.321 -188.254)"/>
    <path id="Path_53" data-name="Path 53" class="cls-3" d="M259.486,172.5H251l5.657,33.941h8.485V178.157A5.657,5.657,0,0,0,259.486,172.5Z" transform="translate(-180.007 -123.709)"/>
    <path id="Path_54" data-name="Path 54" class="cls-10" d="M222.315,172.5h-5.657A5.657,5.657,0,0,0,211,178.157v28.284h16.971V178.157A5.657,5.657,0,0,0,222.315,172.5Z" transform="translate(-151.321 -123.709)"/>
    <path id="Path_55" data-name="Path 55" class="cls-9" d="M268,68.157,256,62.5V85.127a12.73,12.73,0,0,0,12-16.971Z" transform="translate(-183.593 -44.822)"/>
    <path id="Path_56" data-name="Path 56" class="cls-11" d="M256,52.5l4,8.485h8A12.731,12.731,0,0,0,256,52.5Z" transform="translate(-183.593 -37.651)"/>
    <path id="Path_57" data-name="Path 57" class="cls-5" d="M227.729,68.164l-12-5.654a12.726,12.726,0,0,0,8,22.625c2.343,0,4.243-5.7,4.243-12.728A36.419,36.419,0,0,0,227.729,68.164Z" transform="translate(-151.321 -44.829)"/>
    <path id="Path_58" data-name="Path 58" class="cls-12" d="M235.716,60.985h4c-.583-4.943-2.153-8.485-4-8.485a12.672,12.672,0,0,0-8,2.831A8.482,8.482,0,0,0,235.716,60.985Z" transform="translate(-163.308 -37.651)"/>
    <path id="Path_59" data-name="Path 59" class="cls-10" d="M125.143,172.5h-8.485L111,206.441l19.8-8.485v-19.8A5.657,5.657,0,0,0,125.143,172.5Z" transform="translate(-79.605 -123.709)"/>
    <path id="Path_60" data-name="Path 60" class="cls-13" d="M102.315,172.5H96.658A5.657,5.657,0,0,0,91,178.157v28.284h16.971V178.157A5.657,5.657,0,0,0,102.315,172.5Z" transform="translate(-65.262 -123.709)"/>
    <path id="Path_61" data-name="Path 61" class="cls-14" d="M145.143,262.5h-8.485L131,273.107l5.657,13.523h8.485Z" transform="translate(-93.948 -188.254)"/>
    <path id="Path_62" data-name="Path 62" class="cls-15" d="M97.214,262.5H80.244A16.9,16.9,0,0,0,76,273.719v12.91H97.214Z" transform="translate(-54.505 -188.254)"/>
    <circle id="Ellipse_10" data-name="Ellipse 10" class="cls-14" cx="7.071" cy="7.071" r="7.071" transform="translate(17.253 26.163)"/>
    <path id="Path_63" data-name="Path 63" class="cls-4" d="M139.987,82.047,136,99.146a12.728,12.728,0,0,0,12.728-12.728Z" transform="translate(-97.534 -58.841)"/>
    <path id="Path_64" data-name="Path 64" class="cls-2" d="M107.972,71.683a36.339,36.339,0,0,0-.257-4.371L96.091,61.5a12.728,12.728,0,0,0,7.638,22.91C106.072,84.411,107.972,78.713,107.972,71.683Z" transform="translate(-65.262 -44.106)"/>
    <path id="Path_65" data-name="Path 65" class="cls-16" d="M136,52.5l4.214,11.266a25.4,25.4,0,0,0,8.514,1.462A12.728,12.728,0,0,0,136,52.5Z" transform="translate(-97.534 -37.651)"/>
    <path id="Path_66" data-name="Path 66" class="cls-14" d="M116.636,52.5A12.67,12.67,0,0,0,109,55.046a25.518,25.518,0,0,0,11.851,8.72C120.608,57.426,118.814,52.5,116.636,52.5Z" transform="translate(-78.169 -37.651)"/>
    <path id="Path_67" data-name="Path 67" class="cls-9" d="M376,262.5v21.213a12.728,12.728,0,0,0,12.728-12.728Z" transform="translate(-269.652 -188.254)"/>
    <path id="Path_68" data-name="Path 68" class="cls-5" d="M347.972,270.985l-4.243-8.485L331,270.985a12.728,12.728,0,0,0,12.728,12.728C346.072,283.713,347.972,278.015,347.972,270.985Z" transform="translate(-237.38 -188.254)"/>
    <path id="Path_69" data-name="Path 69" class="cls-1" d="M379.486,172.5H371l5.657,33.941h8.485V178.157A5.657,5.657,0,0,0,379.486,172.5Z" transform="translate(-266.066 -123.709)"/>
    <path id="Path_70" data-name="Path 70" class="cls-17" d="M342.315,172.5h-5.657A5.657,5.657,0,0,0,331,178.157v28.284h16.971V178.157A5.657,5.657,0,0,0,342.315,172.5Z" transform="translate(-237.38 -123.709)"/>
    <path id="Path_71" data-name="Path 71" class="cls-11" d="M368.5,152.5v31.113a2.121,2.121,0,1,0,4.243,0V152.5Z" transform="translate(-264.273 -109.366)"/>
    <circle id="Ellipse_11" data-name="Ellipse 11" class="cls-1" cx="4.243" cy="4.243" r="4.243" transform="translate(10.606 6.364)"/>
    <circle id="Ellipse_12" data-name="Ellipse 12" class="cls-3" cx="4.243" cy="4.243" r="4.243" transform="translate(2.121 78.206)"/>
    <circle id="Ellipse_13" data-name="Ellipse 13" class="cls-1" cx="4.243" cy="4.243" r="4.243" transform="translate(134.209 78.206)"/>
    <circle id="Ellipse_14" data-name="Ellipse 14" class="cls-4" cx="4.243" cy="4.243" r="4.243" transform="translate(84.816 2.121)"/>
    <circle id="Ellipse_15" data-name="Ellipse 15" class="cls-15" cx="2.121" cy="2.121" r="2.121" transform="translate(28.94)"/>
    <circle id="Ellipse_16" data-name="Ellipse 16" class="cls-18" cx="2.121" cy="2.121" r="2.121" transform="translate(53.316 8.202)"/>
    <circle id="Ellipse_17" data-name="Ellipse 17" class="cls-3" cx="2.121" cy="2.121" r="2.121" transform="translate(111.635 4.243)"/>
    <circle id="Ellipse_18" data-name="Ellipse 18" class="cls-18" cx="2.121" cy="2.121" r="2.121" transform="translate(4.243 59.397)"/>
    <g id="Group_6" data-name="Group 6" transform="translate(123.602 12.728)">
      <circle id="Ellipse_19" data-name="Ellipse 19" class="cls-15" cx="2.121" cy="2.121" r="2.121"/>
      <circle id="Ellipse_20" data-name="Ellipse 20" class="cls-15" cx="2.121" cy="2.121" r="2.121" transform="translate(12.728 46.669)"/>
    </g>
    <circle id="Ellipse_21" data-name="Ellipse 21" class="cls-18" cx="2.121" cy="2.121" r="2.121" transform="translate(127.845 67.882)"/>
    <path id="Path_72" data-name="Path 72" class="cls-19" d="M376,52.5V81.067l12.728-13.011V65.228A12.728,12.728,0,0,0,376,52.5Z" transform="translate(-269.652 -37.651)"/>
    <path id="Path_73" data-name="Path 73" class="cls-20" d="M343.729,52.5A12.728,12.728,0,0,0,331,65.228v2.828l16.971,13.011V65.228C347.972,58.2,346.072,52.5,343.729,52.5Z" transform="translate(-237.38 -37.651)"/>
    <path id="Path_74" data-name="Path 74" class="cls-10" d="M381.293,104.444a6.4,6.4,0,0,0-1.049-1.205L376,122.829A12.728,12.728,0,0,0,388.729,110.1v-5.657Z" transform="translate(-269.652 -74.039)"/>
    <path id="Path_75" data-name="Path 75" class="cls-13" d="M347.972,105.985V99.123a6.361,6.361,0,0,0-9.534,1.205H331v5.657a12.728,12.728,0,0,0,12.728,12.728C346.072,118.713,347.972,113.015,347.972,105.985Z" transform="translate(-237.38 -69.923)"/>
  </g>
</svg>
