<svg xmlns="http://www.w3.org/2000/svg" viewBox="0 0 133 133">
  <defs>
    <style>
      .cls-1 {
        fill: #882828;
      }

      .cls-2 {
        opacity: 0.64;
      }

      .cls-3 {
        fill: #ffd15c;
      }

      .cls-4 {
        fill: #fff;
      }

      .cls-5 {
        fill: #344a5e;
      }

      .cls-6 {
        fill: #415a6b;
      }
    </style>
  </defs>
  <g id="Lamp" transform="translate(-1252 -454)">
    <circle id="Ellipse_54" data-name="Ellipse 54" class="cls-1" cx="66.5" cy="66.5" r="66.5" transform="translate(1252 454)"/>
    <g id="AliveCampNew_idea" class="cls-2" transform="translate(1279.022 474.935)">
      <path id="Path_171" data-name="Path 171" class="cls-3" d="M308.256,247.207a21.269,21.269,0,0,1,6.422-9.822,25.8,25.8,0,0,0,9.256-19.833,26.071,26.071,0,1,0-42.878,19.833,20.267,20.267,0,0,1,6.611,9.822Z" transform="translate(-258.389 -177.884)"/>
      <path id="Path_172" data-name="Path 172" class="cls-4" d="M505.056,572.479h1.7L499.2,544.335h.567a3.729,3.729,0,0,0,2.644-1.133,1.826,1.826,0,0,1,2.645,0,3.227,3.227,0,0,0,4.911,0,1.715,1.715,0,0,1,1.322-.567,2.041,2.041,0,0,1,1.322.567,3.429,3.429,0,0,0,2.644,1.133h.567l-7.367,28.145h1.7l7.744-29.467c0-.378,0-.756-.378-.944a.83.83,0,0,0-.944.189,1.633,1.633,0,0,1-1.133.567,2.512,2.512,0,0,1-1.511-.567,3.227,3.227,0,0,0-4.911,0,1.826,1.826,0,0,1-2.644,0,3.045,3.045,0,0,0-2.456-1.133h0a3.046,3.046,0,0,0-2.456,1.133,2.145,2.145,0,0,1-1.511.567,1.347,1.347,0,0,1-1.133-.567.831.831,0,0,0-.944-.189.69.69,0,0,0-.378.944Z" transform="translate(-468.034 -502.779)"/>
      <g id="Group_27" data-name="Group 27" transform="translate(29.278 69.134)">
        <path id="Path_173" data-name="Path 173" class="cls-5" d="M557.115,1223.522a6.305,6.305,0,0,0,11.711,0Z" transform="translate(-552.77 -1205.955)"/>
        <path id="Path_174" data-name="Path 174" class="cls-5" d="M513,993.374H499.206a3.386,3.386,0,0,1-3.4-3.4V975.619H516.4v14.356A3.386,3.386,0,0,1,513,993.374Z" transform="translate(-495.806 -975.619)"/>
      </g>
      <g id="Group_28" data-name="Group 28" transform="translate(27.2 72.156)">
        <path id="Path_175" data-name="Path 175" class="cls-6" d="M488.963,1022.425h-20.4a2.1,2.1,0,0,1-2.078-2.078h0a2.1,2.1,0,0,1,2.078-2.078h20.4a2.1,2.1,0,0,1,2.078,2.078h0A2.1,2.1,0,0,1,488.963,1022.425Z" transform="translate(-466.485 -1018.27)"/>
        <path id="Path_176" data-name="Path 176" class="cls-6" d="M488.963,1115.724h-20.4a2.1,2.1,0,0,1-2.078-2.078h0a2.1,2.1,0,0,1,2.078-2.078h20.4a2.1,2.1,0,0,1,2.078,2.078h0A2.1,2.1,0,0,1,488.963,1115.724Z" transform="translate(-466.485 -1104.957)"/>
      </g>
      <g id="Group_29" data-name="Group 29" transform="translate(0)">
        <path id="Path_177" data-name="Path 177" class="cls-3" d="M614.982,0a1.893,1.893,0,0,0-1.889,1.889V8.311a1.893,1.893,0,0,0,1.889,1.889,1.785,1.785,0,0,0,1.889-1.889V1.889A1.893,1.893,0,0,0,614.982,0Z" transform="translate(-575.504 0)"/>
        <path id="Path_178" data-name="Path 178" class="cls-3" d="M240.454,155.173a1.87,1.87,0,1,0-2.644,2.644l4.533,4.533a1.87,1.87,0,1,0,2.644-2.644Z" transform="translate(-226.287 -143.651)"/>
        <path id="Path_179" data-name="Path 179" class="cls-3" d="M90.944,530.46H84.522a1.893,1.893,0,0,0-1.889,1.889h0a1.893,1.893,0,0,0,1.889,1.889h6.422a1.893,1.893,0,0,0,1.889-1.889h0A2.031,2.031,0,0,0,90.944,530.46Z" transform="translate(-82.633 -492.871)"/>
        <path id="Path_180" data-name="Path 180" class="cls-3" d="M242.339,842.905l-4.533,4.533a1.87,1.87,0,0,0,2.644,2.644l4.533-4.533a1.87,1.87,0,0,0-2.644-2.644Z" transform="translate(-226.284 -782.649)"/>
        <path id="Path_181" data-name="Path 181" class="cls-3" d="M928.182,842.9a1.87,1.87,0,0,0-2.645,2.644l4.533,4.533a1.87,1.87,0,0,0,2.644-2.644Z" transform="translate(-865.281 -782.648)"/>
        <path id="Path_182" data-name="Path 182" class="cls-3" d="M1061.232,530.46h-6.422a1.893,1.893,0,0,0-1.889,1.889h0a1.893,1.893,0,0,0,1.889,1.889h6.422a1.893,1.893,0,0,0,1.889-1.889h0A1.893,1.893,0,0,0,1061.232,530.46Z" transform="translate(-984.165 -492.871)"/>
        <path id="Path_183" data-name="Path 183" class="cls-3" d="M930.07,155.174l-4.533,4.533a1.87,1.87,0,0,0,2.644,2.644l4.533-4.533a1.87,1.87,0,0,0-2.644-2.644Z" transform="translate(-865.281 -143.652)"/>
      </g>
    </g>
  </g>
</svg>
