<svg xmlns="http://www.w3.org/2000/svg" xmlns:xlink="http://www.w3.org/1999/xlink" viewBox="0 0 112 112">
  <defs>
    <style>
      .cls-1 {
        fill: #fff700;
      }

      .cls-2 {
        fill: #fff;
        fill-rule: evenodd;
      }

      .cls-3 {
        filter: url(#Ellipse_1);
      }
    </style>
    <filter id="Ellipse_1" x="0" y="0" width="112" height="112" filterUnits="userSpaceOnUse">
      <feOffset dy="3" input="SourceAlpha"/>
      <feGaussianBlur stdDeviation="3" result="blur"/>
      <feFlood flood-color="#fff700"/>
      <feComposite operator="in" in2="blur"/>
      <feComposite in="SourceGraphic"/>
    </filter>
  </defs>
  <g id="Play_Button" data-name="Play Button" transform="translate(-890 -824)">
    <g class="cls-3" transform="matrix(1, 0, 0, 1, 890, 824)">
      <circle id="Ellipse_1-2" data-name="Ellipse 1" class="cls-1" cx="47" cy="47" r="47" transform="translate(9 6)"/>
    </g>
    <path id="AliveCampNew_music-player-play.svg" class="cls-2" d="M119.676,19.915,88.794.457A5.539,5.539,0,0,0,85.891,0c-3.425,0-3.41,2.644-3.41,3.314V43.087c0,.566-.015,3.314,3.41,3.314a5.54,5.54,0,0,0,2.9-.453l30.882-19.457c2.535-1.508,2.1-3.288,2.1-3.288S122.211,21.423,119.676,19.915Z" transform="translate(848.867 854.05)"/>
  </g>
</svg>
